<?xml version="1.0" encoding="utf-8"?>
<!-- Generator: Adobe Illustrator 23.1.1, SVG Export Plug-In . SVG Version: 6.00 Build 0)  -->
<svg version="1.1" id="Layer_1" xmlns="http://www.w3.org/2000/svg" xmlns:xlink="http://www.w3.org/1999/xlink" x="0px" y="0px"
	 viewBox="0 0 96 96" style="enable-background:new 0 0 96 96;" xml:space="preserve">
<style type="text/css">
	.st0{fill:#22282A;}
	.st1{fill:#EC7600;}
	.st2{fill:#678CB1;}
</style>
<path class="st0" d="M84,96H12C5.4,96,0,90.6,0,84V12C0,5.4,5.4,0,12,0h72c6.6,0,12,5.4,12,12v72C96,90.6,90.6,96,84,96z"/>
<g>
	<path class="st1" d="M49.6,18.7v9.6c0,0.6-0.4,1.1-0.9,1.3c-6.5,2.6-11,8.4-11,18.2s4.5,15.7,11,18.2c0.5,0.2,0.9,0.7,0.9,1.3v9.6
		c0,0.9-0.9,1.6-1.8,1.4C34,74.6,25.6,63.2,25.6,47.9S34,21.2,47.8,17.4C48.7,17.1,49.6,17.8,49.6,18.7z M90,47.9
		c0,15.3-8.5,26.7-22.2,30.5C66.9,78.7,66,78,66,77v-9.6c0-0.6,0.4-1.1,0.9-1.3c6.5-2.6,11-8.4,11-18.2s-4.5-15.7-11-18.2
		C66.4,29.5,66,29,66,28.4v-9.6c0-0.9,0.9-1.6,1.8-1.4C81.5,21.2,90,32.6,90,47.9z"/>
	<path class="st2" d="M21.5,77V64.5c0-0.8-0.7-1.5-1.5-1.5H7.5C6.7,63,6,63.7,6,64.5v12.6c0,0.8,0.7,1.5,1.5,1.5H20
		C20.8,78.5,21.5,77.8,21.5,77z"/>
</g>
</svg>
